<?xml version="1.0" encoding="UTF-8"?>
<svg xmlns="http://www.w3.org/2000/svg" viewBox="0 0 800 520" fill="none">
  <defs>
    <linearGradient id="cat-bg" x1="0" y1="0" x2="1" y2="1">
      <stop offset="0%" stop-color="#ffffff"/>
      <stop offset="45%" stop-color="#fff4e6"/>
      <stop offset="100%" stop-color="#ffedd5"/>
    </linearGradient>
  </defs>
  <rect width="800" height="520" fill="url(#cat-bg)"/>
  <circle cx="650" cy="110" r="120" fill="#f38b09" opacity="0.08"/>
  <circle cx="140" cy="420" r="90" fill="#b86506" opacity="0.07"/>
  <rect x="70" y="120" width="130" height="130" rx="65" fill="#ffffff" stroke="#e2e8f0" stroke-width="2"/>
  <rect x="95" y="155" width="80" height="60" rx="10" fill="#334155"/>
  <rect x="235" y="120" width="130" height="130" rx="65" fill="#ffffff" stroke="#fde68a" stroke-width="2"/>
  <path d="M300 155 335 205 265 205Z" fill="#f38b09"/>
  <rect x="400" y="120" width="130" height="130" rx="65" fill="#ffffff" stroke="#e2e8f0" stroke-width="2"/>
  <circle cx="465" cy="185" r="34" fill="#64748b"/>
  <rect x="565" y="120" width="130" height="130" rx="65" fill="#ffffff" stroke="#fed7aa" stroke-width="2"/>
  <rect x="600" y="150" width="60" height="70" rx="8" fill="#b86506" opacity="0.75"/>
  <rect x="120" y="290" width="560" height="8" rx="4" fill="#f38b09" opacity="0.35"/>
  <rect x="160" y="330" width="480" height="12" rx="6" fill="#cbd5e1" opacity="0.55"/>
  <rect x="200" y="365" width="400" height="12" rx="6" fill="#e2e8f0"/>
</svg>
